<?xml version="1.0" standalone="no"?>
<!DOCTYPE svg PUBLIC "-//W3C//DTD SVG 20010904//EN"
 "http://www.w3.org/TR/2001/REC-SVG-20010904/DTD/svg10.dtd">
<svg version="1.0" xmlns="http://www.w3.org/2000/svg"
 width="699.000000pt" height="699.000000pt" viewBox="0 0 699.000000 699.000000"
 preserveAspectRatio="xMidYMid meet">
<metadata>
Created by potrace 1.14, written by Peter Selinger 2001-2017
</metadata>
<g transform="translate(0.000000,699.000000) scale(0.100000,-0.100000)"
fill="#000000" stroke="none">
<path d="M2460 6180 c-50 -7 -82 -12 -165 -26 -73 -12 -233 -59 -327 -96 -57
-22 -111 -42 -120 -45 -10 -3 -18 -9 -18 -13 0 -4 -11 -11 -24 -14 -13 -3 -56
-24 -95 -47 -70 -40 -72 -41 -141 -34 -69 7 -227 -9 -261 -26 -31 -15 -152
-24 -319 -23 -150 1 -173 4 -250 28 -126 40 -141 43 -187 34 -89 -16 -143 -85
-144 -186 -1 -66 58 -278 94 -340 33 -56 147 -170 195 -194 23 -12 51 -30 62
-40 10 -10 23 -18 28 -18 14 0 102 -70 102 -81 0 -6 -8 -29 -18 -52 -45 -101
-101 -273 -117 -358 -3 -13 -7 -35 -10 -49 -23 -117 -30 -204 -30 -370 0 -191
9 -277 49 -455 35 -159 138 -414 219 -542 15 -24 27 -47 27 -52 0 -5 4 -11 8
-13 4 -1 30 -36 57 -76 27 -40 58 -80 69 -88 11 -8 17 -14 13 -14 -23 0 220
-241 308 -305 22 -17 42 -33 43 -37 2 -5 10 -8 18 -8 8 0 14 -4 14 -8 0 -8
155 -104 250 -154 140 -75 401 -158 575 -184 28 -4 55 -8 60 -9 91 -20 356
-19 485 0 25 4 61 9 80 11 90 11 412 103 430 124 3 3 11 6 18 8 28 5 213 101
223 115 3 5 9 8 13 7 4 -1 44 24 90 54 45 31 87 56 94 56 6 0 12 -12 14 -27 4
-36 32 -41 69 -14 23 17 35 20 61 13 31 -8 32 -10 29 -54 -3 -55 16 -68 63
-40 27 16 35 17 61 6 41 -18 130 -17 165 1 22 11 51 14 107 12 42 -3 93 0 112
6 108 29 702 137 761 137 38 0 97 19 115 36 8 9 15 26 15 39 0 24 1 23 53 -15
39 -30 61 -56 81 -99 17 -35 40 -65 57 -75 16 -9 39 -35 51 -56 13 -21 30 -41
38 -43 8 -2 25 -25 38 -50 20 -40 22 -52 13 -85 -12 -42 -65 -122 -81 -122 -6
0 -10 -10 -10 -23 0 -47 -186 -128 -375 -163 -72 -13 -147 -19 -267 -19 -148
0 -167 -2 -171 -17 -5 -16 19 -31 68 -41 12 -3 6 -5 -15 -7 -19 -1 -42 -3 -50
-4 -8 -2 -53 -6 -100 -10 -47 -4 -98 -9 -115 -11 -16 -2 -84 -9 -150 -15 -66
-6 -131 -13 -144 -15 -13 -2 -128 13 -255 35 -407 68 -854 133 -1005 146 -36
3 -77 7 -90 10 -46 10 -418 12 -521 4 -186 -16 -534 -81 -590 -110 -9 -5 -60
-20 -115 -34 -407 -107 -753 -252 -771 -322 -3 -12 -36 -45 -72 -72 -175 -131
-349 -358 -299 -389 6 -4 133 -8 282 -9 148 -1 279 -4 290 -7 11 -2 56 -8 100
-12 44 -3 118 -10 165 -14 145 -13 499 -8 509 7 7 12 226 44 457 67 38 4 71 9
74 10 30 18 583 26 745 12 82 -7 529 -72 565 -82 8 -2 35 -6 60 -9 25 -3 117
-14 205 -25 88 -11 189 -23 225 -26 36 -4 76 -9 90 -11 111 -18 519 -25 710
-12 296 21 560 69 711 128 30 12 89 28 132 36 220 38 508 277 621 513 99 206
109 565 27 882 -89 337 -231 602 -551 1029 -291 387 -501 727 -581 940 -46
122 -186 318 -240 335 -32 10 -21 23 19 21 30 -1 38 3 40 19 2 17 -19 32 -135
88 -76 37 -163 76 -193 87 -30 10 -48 20 -40 20 8 1 35 12 60 25 25 13 55 29
68 34 12 6 22 17 22 25 0 15 -34 31 -48 22 -30 -18 -229 -28 -326 -15 -64 8
-101 18 -336 89 l-95 29 -49 66 c-28 36 -54 65 -60 65 -5 0 -7 3 -3 6 15 15
-271 275 -377 342 -22 14 -47 31 -54 39 -7 7 -20 13 -28 13 -8 0 -14 5 -14 10
0 6 -5 10 -11 10 -7 0 -33 13 -58 29 -26 15 -58 32 -72 36 -13 4 -26 11 -29
14 -5 6 -87 45 -100 47 -5 1 -13 4 -75 27 -16 7 -33 12 -37 12 -3 0 -10 3 -14
8 -4 4 -16 7 -26 7 -10 0 -26 4 -36 9 -21 12 -179 49 -242 57 -25 3 -61 8 -80
11 -60 8 -382 10 -440 3z"/>
</g>
</svg>
